<svg version="1.0" viewBox="0 0 508 508"><path d="M293.5 7.2c-5.5 3.7-10 7.3-10 7.9 0 .7.7 1.6 1.6 2.2 1.1.7 3.3-.3 8.9-4.1 4.1-2.8 7.7-4.9 8-4.7.8.5 5.6 7.4 23.2 33.8 7.8 11.7 14.5 21.3 15 21.5.4.2.8.8.8 1.3 0 2.7 15.9 23.6 25.3 33.3l10.7 11.1-13.2-19.8c-7.3-10.9-13.7-20.5-14.3-21.4-.5-1-1.4-2.2-2-2.9-.5-.6-9.3-13.6-19.5-28.8C317.8 21.4 308.2 7 306.5 4.7l-3-4.2-10 6.7zm-163.2 120L5.2 252.5 130 377.2C198.7 445.9 255.2 502 255.7 502c.4 0 57-56.2 125.6-124.8l124.9-124.9L381 127.2C312.1 58.3 255.7 2 255.7 2c-.1 0-56.5 56.4-125.4 125.2zM94 141.7c-13.5 9.1-35.5 24-49 33.1-13.5 9.1-28.8 19.5-34 23-5.2 3.5-9.4 6.9-9.2 7.5.8 2.6 14.6 21.7 15.5 21.4.6-.2 1.5-1 2.1-1.9.8-1.3-.3-3.5-4.9-10.3-3.5-5.1-5.5-8.9-4.9-9.3.5-.4 5.9-4 11.9-8.1 6.1-4.1 15.7-10.6 21.5-14.6 5.8-3.9 20.2-13.6 32-21.6 11.8-7.9 22.1-14.8 22.9-15.4 2.1-1.5 21.7-20.5 21.1-20.4-.3 0-11.5 7.5-25 16.6zm396.6 141.2c-1.7 1.9-1.6 2.2 3.3 9.5 2.8 4.1 5.1 8 5.1 8.5s-4.6 4.1-10.2 7.8c-5.7 3.8-16.6 11.2-24.3 16.4-7.7 5.3-22.1 15-32 21.6-14.3 9.6-20 14.1-28 22.2-10.7 10.9-12.2 12.5-9 10 1.1-.9 13.3-9.2 27-18.4 13.8-9.3 34.5-23.2 46-31 11.6-7.8 24.8-16.8 29.5-19.9 4.7-3.2 8.6-6.2 8.8-6.6.3-.8-13.4-22-14.2-22-.1 0-1.1.9-2 1.9zM129.2 394.5c4.1 6 15.5 22.9 25.3 37.5 9.8 14.6 24.8 36.8 33.3 49.5 8.5 12.6 16 23.6 16.6 24.2.9 1 3.6-.4 12-6.2 6-4.1 11.4-7.6 11.9-7.8 1.2-.4-1.4-4.7-2.8-4.7-.5 0-5 2.7-10 6-4.9 3.3-9.2 5.6-9.6 5.2-.3-.4-6.7-9.7-14.1-20.7-48.9-72.6-50.7-75.2-58.5-83.1-11.8-11.9-12.3-11.9-4.1.1z"/></svg>