<?xml version="1.0" standalone="no"?>
<!DOCTYPE svg PUBLIC "-//W3C//DTD SVG 20010904//EN"
 "http://www.w3.org/TR/2001/REC-SVG-20010904/DTD/svg10.dtd">
<svg version="1.0" xmlns="http://www.w3.org/2000/svg"
 width="508.000000pt" height="508.000000pt" viewBox="0 0 508.000000 508.000000"
 preserveAspectRatio="xMidYMid meet">
<metadata>
Created by potrace 1.11, written by Peter Selinger 2001-2013
</metadata>
<g transform="translate(0.000000,508.000000) scale(0.100000,-0.100000)"
fill="#000000" stroke="none">
<path d="M2935 5008 c-55 -37 -100 -73 -100 -79 0 -7 7 -16 16 -22 11 -7 33 3
89 41 41 28 77 49 80 47 8 -5 56 -74 232 -338 78 -117 145 -213 150 -215 4 -2
8 -8 8 -13 0 -27 159 -236 253 -333 l107 -111 -132 198 c-73 109 -137 205
-143 214 -5 10 -14 22 -20 29 -5 6 -93 136 -195 288 -102 152 -198 296 -215
319 l-30 42 -100 -67z"/>
<path d="M1303 3808 l-1251 -1253 1248 -1247 c687 -687 1252 -1248 1257 -1248
4 0 570 562 1256 1248 l1249 1249 -1252 1251 c-689 689 -1253 1252 -1253 1252
-1 0 -565 -564 -1254 -1252z"/>
<path d="M940 3663 c-135 -91 -355 -240 -490 -331 -135 -91 -288 -195 -340
-230 -52 -35 -94 -69 -92 -75 8 -26 146 -217 155 -214 6 2 15 10 21 19 8 13
-3 35 -49 103 -35 51 -55 89 -49 93 5 4 59 40 119 81 61 41 157 106 215 146
58 39 202 136 320 216 118 79 221 148 229 154 21 15 217 205 211 204 -3 0
-115 -75 -250 -166z"/>
<path d="M4906 2251 c-17 -19 -16 -22 33 -95 28 -41 51 -80 51 -85 0 -5 -46
-41 -102 -78 -57 -38 -166 -112 -243 -164 -77 -53 -221 -150 -320 -216 -143
-96 -200 -141 -280 -222 -107 -109 -122 -125 -90 -100 11 9 133 92 270 184
138 93 345 232 460 310 116 78 248 168 295 199 47 32 86 62 88 66 3 8 -134
220 -142 220 -1 0 -11 -9 -20 -19z"/>
<path d="M1292 1135 c41 -60 155 -229 253 -375 98 -146 248 -368 333 -495 85
-126 160 -236 166 -242 9 -10 36 4 120 62 60 41 114 76 119 78 12 4 -14 47
-28 47 -5 0 -50 -27 -100 -60 -49 -33 -92 -56 -96 -52 -3 4 -67 97 -141 207
-489 726 -507 752 -585 831 -118 119 -123 119 -41 -1z"/>
</g>
</svg>
