<svg xmlns="http://www.w3.org/2000/svg" xmlns:xlink="http://www.w3.org/1999/xlink" id="Layer_1" x="0" y="0" version="1.1" viewBox="0 0 1000 600" xml:space="preserve" style="enable-background:new 0 0 1000 600"><style type="text/css">.st0{fill:#e2e2e2}.st1{fill:#fff}</style><g><path d="M469.2,448.56c338.2,2.83,323.4-44.67,334.43-124.19c105.8-3.6,321.86,276.75-270.12,274.39 S-1.14,362.58,161.7,325.02c10.24,35.86,14.55,58.55,30.16,75.03C216.86,426.47,336.59,447.45,469.2,448.56z" class="st0"/><path d="M800.84,312.45C818.8,286.76,375.74-33.54,269.97,2.88c-80.01,27.55-98.4,114.89-102.19,309.41 C395.63,344.5,606.65,344.55,800.84,312.45z" class="st1"/><path d="M751.68,34.65c-41.88-19.84-171.2,17.44-254.7,48.77c-0.02,0.01-0.03,0.02-0.05,0.03 c147.06,84.33,304.33,205.88,304.35,227.97C801.36,311.47,816.8,65.51,751.68,34.65z" class="st0"/></g></svg>