<svg xmlns="http://www.w3.org/2000/svg" xmlns:xlink="http://www.w3.org/1999/xlink" id="Layer_1" x="0" y="0" version="1.1" viewBox="0 0 452 204" xml:space="preserve" style="enable-background:new 0 0 452 204"><style type="text/css">.st0{fill:none;stroke:#fff;stroke-width:7;stroke-linejoin:round;stroke-miterlimit:10}</style><path d="M40.31,44.26v144.69c0,0,30.55,0.01,33.6,0c0.2-5.91,2.8-177.8,2.8-177.8H9.87l9.7,33.1L40.31,44.26z" class="st0"/><rect width="107.89" height="177.81" x="99.12" y="11.38" class="st0"/><polygon points="128.54 40.86 128.54 157.85 177.99 157.85 177.09 40.86" class="st0"/><polygon points="227.49 12.22 227.49 43.07 288.56 43.37 222.12 189.19 260.37 189.19 327.56 40.86 327.97 11.42" class="st0"/><polygon points="342.8 11.42 436 11.42 436 110.33 370.03 111.45 362.65 159.24 436 159.24 436 188.96 322.24 188.96 344.55 79.65 408.39 79.47 407.89 45.47 343.01 45.9" class="st0"/></svg>