<?xml version="1.0" encoding="utf-8"?>
<!-- Generator: Adobe Illustrator 23.0.3, SVG Export Plug-In . SVG Version: 6.00 Build 0)  -->
<svg version="1.1" id="Layer_1" xmlns="http://www.w3.org/2000/svg" xmlns:xlink="http://www.w3.org/1999/xlink" x="0px" y="0px"
	 viewBox="0 0 452 204" style="enable-background:new 0 0 452 204;" xml:space="preserve">
<style type="text/css">
	.st0{fill:none;stroke:#FFFFFF;stroke-width:7;stroke-linejoin:round;stroke-miterlimit:10;}
</style>
<path class="st0" d="M40.31,44.26v144.69c0,0,30.55,0.01,33.6,0c0.2-5.91,2.8-177.8,2.8-177.8H9.87l9.7,33.1L40.31,44.26z"/>
<rect x="99.12" y="11.38" class="st0" width="107.89" height="177.81"/>
<polygon class="st0" points="128.54,40.86 128.54,157.85 177.99,157.85 177.09,40.86 "/>
<polygon class="st0" points="227.49,12.22 227.49,43.07 288.56,43.37 222.12,189.19 260.37,189.19 327.56,40.86 327.97,11.42 "/>
<polygon class="st0" points="342.8,11.42 436,11.42 436,110.33 370.03,111.45 362.65,159.24 436,159.24 436,188.96 322.24,188.96 
	344.55,79.65 408.39,79.47 407.89,45.47 343.01,45.9 "/>
</svg>
