<?xml version="1.0" encoding="utf-8"?>
<!-- Generator: Adobe Illustrator 23.0.3, SVG Export Plug-In . SVG Version: 6.00 Build 0)  -->
<svg version="1.1" xmlns="http://www.w3.org/2000/svg" xmlns:xlink="http://www.w3.org/1999/xlink" x="0px" y="0px"
	 viewBox="0 0 452 145" style="enable-background:new 0 0 452 145;" xml:space="preserve">
<style type="text/css">
	.st0{fill:none;stroke:#FFFFFF;stroke-width:6;stroke-linejoin:round;stroke-miterlimit:10;}
</style>
<g id="Layer_2">
</g>
<g id="Layer_1">
	<g id="XMLID_1_">
		<g>
			<path class="st0" d="M40.3,38v92c0,0,30.5,0,33.6,0c0.2-3.8,2.8-113,2.8-113H9.9l9.7,21L40.3,38z"/>
			<rect x="99.1" y="17.1" class="st0" width="107.9" height="113"/>
			<polygon class="st0" points="128.5,35.9 128.5,110.2 178,110.2 177.1,35.9 			"/>
			<polygon class="st0" points="227.5,17.6 227.5,37.3 288.6,37.5 222.1,130.2 260.4,130.2 327.6,35.9 328,17.1 			"/>
			<polygon class="st0" points="342.8,17.1 436,17.1 436,80 370,80.7 362.6,111.1 436,111.1 436,130 322.2,130 344.5,60.5 
				408.4,60.4 407.9,38.8 343,39.1 			"/>
		</g>
	</g>
</g>
</svg>
